<svg xmlns="http://www.w3.org/2000/svg" width="612" height="432" viewBox="0 0 612 432" font-family="'Segoe UI', Helvetica, Arial, sans-serif" font-size="14">
<rect width="612" height="432" fill="white"/>
<text x="24" y="20" text-anchor="middle" font-size="14" fill="#57606a">Time</text>
<line x1="24" y1="34" x2="24" y2="406" stroke="#57606a" stroke-width="2"/>
<polygon points="18,406 24,416 30,406" fill="#57606a"/>
<text x="188" y="40" text-anchor="middle" font-size="16" fill="#57606a">outline.md</text>
<rect x="40" y="48" width="296" height="368" rx="6" fill="#f6f8fa" stroke="#d0d7de"/>
<text x="56" y="80" font-family="Consolas, 'Courier New', monospace" fill="#1f2328" xml:space="preserve"># 設計メモ</text>
<text x="56" y="104" font-family="Consolas, 'Courier New', monospace" fill="#1f2328" xml:space="preserve"></text>
<text x="56" y="128" font-family="Consolas, 'Courier New', monospace" fill="#1f2328" xml:space="preserve">- この箇条書きはカードになりません</text>
<text x="56" y="152" font-family="Consolas, 'Courier New', monospace" fill="#1f2328" xml:space="preserve"></text>
<text x="56" y="176" font-family="Consolas, 'Courier New', monospace" fill="#1f2328" xml:space="preserve">## Story Map</text>
<text x="56" y="200" font-family="Consolas, 'Courier New', monospace" fill="#1f2328" xml:space="preserve"></text>
<text x="56" y="224" font-family="Consolas, 'Courier New', monospace" fill="#1f2328" xml:space="preserve">マップについての補足</text>
<text x="56" y="248" font-family="Consolas, 'Courier New', monospace" fill="#1f2328" xml:space="preserve"></text>
<text x="56" y="272" font-family="Consolas, 'Courier New', monospace" fill="#1f2328" xml:space="preserve">- Activity A</text>
<text x="56" y="296" font-family="Consolas, 'Courier New', monospace" fill="#1f2328" xml:space="preserve">  - Task 1</text>
<text x="56" y="320" font-family="Consolas, 'Courier New', monospace" fill="#1f2328" xml:space="preserve"></text>
<text x="56" y="344" font-family="Consolas, 'Courier New', monospace" fill="#1f2328" xml:space="preserve">## 付録</text>
<text x="56" y="368" font-family="Consolas, 'Courier New', monospace" fill="#1f2328" xml:space="preserve"></text>
<text x="56" y="392" font-family="Consolas, 'Courier New', monospace" fill="#1f2328" xml:space="preserve">- この箇条書きもカードになりません</text>
<polygon points="350,226 392,226 392,218 412,232 392,246 392,238 350,238" fill="#d0d7de" stroke="#57606a" stroke-width="2" stroke-linejoin="round"/>
<text x="512" y="20" text-anchor="middle" font-size="14" fill="#57606a">Time</text>
<line x1="444" y1="34" x2="570" y2="34" stroke="#57606a" stroke-width="2"/>
<polygon points="570,28 580,34 570,40" fill="#57606a"/>
<rect x="428" y="48" width="168" height="238" rx="6" fill="white" stroke="#d0d7de"/>
<text x="444" y="86" font-size="22" font-weight="bold" fill="#1f2328">設計メモ</text>
<text x="444" y="112" fill="#1f2328">マップについての補足</text>
<rect x="444" y="126" width="136" height="48" fill="hsl(211, 100%, 94%)"/>
<line x1="444" y1="173" x2="580" y2="173" stroke="hsl(211, 100%, 87%)" stroke-width="2" stroke-dasharray="6 4"/>
<rect x="444" y="174" width="136" height="48" fill="hsl(147, 100%, 94%)"/>
<line x1="444" y1="221" x2="580" y2="221" stroke="hsl(147, 100%, 87%)" stroke-width="2" stroke-dasharray="6 4"/>
<rect x="444" y="222" width="136" height="48" fill="hsl(343, 100%, 94%)"/>
<line x1="444" y1="269" x2="580" y2="269" stroke="hsl(343, 100%, 87%)" stroke-width="2" stroke-dasharray="6 4"/>
<rect x="452" y="134" width="120" height="32" rx="6" fill="hsl(211, 100%, 87%)" stroke="hsl(211, 100%, 56%)" stroke-width="2"/>
<text x="462" y="155" fill="#1f2328">Activity A</text>
<rect x="452" y="182" width="120" height="32" rx="6" fill="hsl(147, 100%, 87%)" stroke="hsl(147, 100%, 56%)" stroke-width="2"/>
<text x="462" y="203" fill="#1f2328">Task 1</text>
</svg>
