<svg xmlns="http://www.w3.org/2000/svg" width="1148" height="672" viewBox="0 0 1148 672" font-family="'Segoe UI', Helvetica, Arial, sans-serif" font-size="14">
<rect width="1148" height="672" fill="white"/>
<text x="24" y="20" text-anchor="middle" font-size="14" fill="#57606a">Time</text>
<line x1="24" y1="34" x2="24" y2="646" stroke="#57606a" stroke-width="2"/>
<polygon points="18,646 24,656 30,646" fill="#57606a"/>
<text x="220" y="40" text-anchor="middle" font-size="16" fill="#57606a">outline.md</text>
<rect x="40" y="48" width="360" height="608" rx="6" fill="#f6f8fa" stroke="#d0d7de"/>
<text x="56" y="80" font-family="Consolas, 'Courier New', monospace" fill="#1f2328" xml:space="preserve"># Map Title</text>
<text x="56" y="104" font-family="Consolas, 'Courier New', monospace" fill="#1f2328" xml:space="preserve"></text>
<text x="56" y="128" font-family="Consolas, 'Courier New', monospace" fill="#1f2328" xml:space="preserve">A note about the map and the user types</text>
<text x="56" y="152" font-family="Consolas, 'Courier New', monospace" fill="#1f2328" xml:space="preserve">("organizer", "player", etc.)</text>
<text x="56" y="176" font-family="Consolas, 'Courier New', monospace" fill="#1f2328" xml:space="preserve"></text>
<text x="56" y="200" font-family="Consolas, 'Courier New', monospace" fill="#1f2328" xml:space="preserve">- Activity A #organizer</text>
<text x="56" y="224" font-family="Consolas, 'Courier New', monospace" fill="#1f2328" xml:space="preserve">  - [ ] Task 1</text>
<text x="56" y="248" font-family="Consolas, 'Courier New', monospace" fill="#1f2328" xml:space="preserve">    - Task 1-1</text>
<text x="56" y="272" font-family="Consolas, 'Courier New', monospace" fill="#1f2328" xml:space="preserve">      - Task 1-1-1</text>
<text x="56" y="296" font-family="Consolas, 'Courier New', monospace" fill="#1f2328" xml:space="preserve">        - Task 1-1-1-1</text>
<text x="56" y="320" font-family="Consolas, 'Courier New', monospace" fill="#1f2328" xml:space="preserve">  - [x] Task 2</text>
<text x="56" y="344" font-family="Consolas, 'Courier New', monospace" fill="#1f2328" xml:space="preserve">    - Task 2-1 +</text>
<text x="56" y="368" font-family="Consolas, 'Courier New', monospace" fill="#1f2328" xml:space="preserve">      - Task 2-1-1</text>
<text x="56" y="392" font-family="Consolas, 'Courier New', monospace" fill="#1f2328" xml:space="preserve">    - Task 2-2</text>
<text x="56" y="416" font-family="Consolas, 'Courier New', monospace" fill="#1f2328" xml:space="preserve">      - _</text>
<text x="56" y="440" font-family="Consolas, 'Courier New', monospace" fill="#1f2328" xml:space="preserve">        - Task 2-2-1</text>
<text x="56" y="464" font-family="Consolas, 'Courier New', monospace" fill="#1f2328" xml:space="preserve">- Activity B #player</text>
<text x="56" y="488" font-family="Consolas, 'Courier New', monospace" fill="#1f2328" xml:space="preserve">  - Task 3</text>
<text x="56" y="512" font-family="Consolas, 'Courier New', monospace" fill="#1f2328" xml:space="preserve">    - Task 3-1</text>
<text x="56" y="536" font-family="Consolas, 'Courier New', monospace" fill="#1f2328" xml:space="preserve">      - // Notes about Task 3-1</text>
<text x="56" y="560" font-family="Consolas, 'Courier New', monospace" fill="#1f2328" xml:space="preserve">    - // Task 3-2</text>
<text x="56" y="584" font-family="Consolas, 'Courier New', monospace" fill="#1f2328" xml:space="preserve">      - Not sure whether to keep this task</text>
<text x="56" y="608" font-family="Consolas, 'Courier New', monospace" fill="#1f2328" xml:space="preserve"></text>
<text x="56" y="632" font-family="Consolas, 'Courier New', monospace" fill="#1f2328" xml:space="preserve">A note under the map</text>
<polygon points="414,346 456,346 456,338 476,352 456,366 456,358 414,358" fill="#d0d7de" stroke="#57606a" stroke-width="2" stroke-linejoin="round"/>
<text x="812" y="20" text-anchor="middle" font-size="14" fill="#57606a">Time</text>
<line x1="508" y1="34" x2="1106" y2="34" stroke="#57606a" stroke-width="2"/>
<polygon points="1106,28 1116,34 1106,40" fill="#57606a"/>
<rect x="492" y="48" width="640" height="406" rx="6" fill="white" stroke="#d0d7de"/>
<text x="508" y="86" font-size="22" font-weight="bold" fill="#1f2328">Map Title</text>
<text x="508" y="112" fill="#1f2328">A note about the map and the user types ("organizer", "player", etc.)</text>
<rect x="508" y="126" width="608" height="48" fill="hsl(211, 100%, 94%)"/>
<line x1="508" y1="173" x2="1116" y2="173" stroke="hsl(211, 100%, 87%)" stroke-width="2" stroke-dasharray="6 4"/>
<rect x="508" y="174" width="608" height="48" fill="hsl(147, 100%, 94%)"/>
<line x1="508" y1="221" x2="1116" y2="221" stroke="hsl(147, 100%, 87%)" stroke-width="2" stroke-dasharray="6 4"/>
<rect x="508" y="222" width="608" height="96" fill="hsl(343, 100%, 94%)"/>
<line x1="508" y1="317" x2="1116" y2="317" stroke="hsl(343, 100%, 87%)" stroke-width="2" stroke-dasharray="6 4"/>
<rect x="508" y="318" width="608" height="48" fill="hsl(37, 100%, 94%)"/>
<line x1="508" y1="365" x2="1116" y2="365" stroke="hsl(37, 100%, 87%)" stroke-width="2" stroke-dasharray="6 4"/>
<rect x="508" y="366" width="608" height="48" fill="hsl(37, 100%, 98%)"/>
<line x1="508" y1="413" x2="1116" y2="413" stroke="hsl(37, 100%, 87%)" stroke-width="2" stroke-dasharray="6 4"/>
<rect x="516" y="134" width="160" height="32" rx="6" fill="hsl(211, 100%, 87%)" stroke="hsl(211, 100%, 56%)" stroke-width="2"/>
<text x="526" y="155" fill="#1f2328">Activity A</text>
<rect x="598" y="142" width="66" height="16" rx="8" fill="white"/>
<text x="631" y="154" text-anchor="middle" font-size="11" fill="#1f2328">organizer</text>
<rect x="518" y="184" width="120" height="32" rx="6" fill="rgba(0, 0, 0, 0.2)"/>
<rect x="516" y="182" width="120" height="32" rx="6" fill="hsl(147, 100%, 87%)" stroke="hsl(147, 100%, 56%)" stroke-width="2"/>
<text x="526" y="203" fill="#1f2328">⬜ Task 1</text>
<rect x="516" y="230" width="120" height="32" rx="6" fill="hsl(343, 100%, 87%)" stroke="hsl(343, 100%, 56%)" stroke-width="2"/>
<text x="526" y="251" fill="#1f2328">Task 1-1</text>
<rect x="516" y="326" width="120" height="32" rx="6" fill="hsl(37, 100%, 87%)" stroke="hsl(37, 100%, 56%)" stroke-width="2"/>
<text x="526" y="347" fill="#1f2328">Task 1-1-1</text>
<rect x="516" y="374" width="120" height="32" rx="6" fill="hsl(37, 100%, 87%)" stroke="hsl(37, 100%, 56%)" stroke-width="2"/>
<text x="526" y="395" fill="#1f2328">Task 1-1-1-1</text>
<rect x="692" y="182" width="120" height="32" rx="6" fill="hsl(147, 100%, 87%)"/>
<text x="702" y="203" fill="#1f2328">✅ Task 2</text>
<rect x="692" y="230" width="120" height="32" rx="6" fill="hsl(343, 100%, 87%)" stroke="hsl(343, 100%, 56%)" stroke-width="2"/>
<text x="702" y="251" fill="#1f2328">Task 2-1</text>
<rect x="692" y="278" width="120" height="32" rx="6" fill="hsl(343, 100%, 87%)" stroke="hsl(343, 100%, 56%)" stroke-width="2"/>
<text x="702" y="299" fill="#1f2328">Task 2-1-1</text>
<rect x="828" y="230" width="120" height="32" rx="6" fill="hsl(343, 100%, 87%)" stroke="hsl(343, 100%, 56%)" stroke-width="2"/>
<text x="838" y="251" fill="#1f2328">Task 2-2</text>
<rect x="828" y="374" width="120" height="32" rx="6" fill="hsl(37, 100%, 87%)" stroke="hsl(37, 100%, 56%)" stroke-width="2"/>
<text x="838" y="395" fill="#1f2328">Task 2-2-1</text>
<rect x="964" y="134" width="144" height="32" rx="6" fill="hsl(211, 100%, 87%)" stroke="hsl(211, 100%, 56%)" stroke-width="2"/>
<text x="974" y="155" fill="#1f2328">Activity B</text>
<rect x="1046" y="142" width="48" height="16" rx="8" fill="white"/>
<text x="1070" y="154" text-anchor="middle" font-size="11" fill="#1f2328">player</text>
<rect x="964" y="182" width="120" height="32" rx="6" fill="hsl(147, 100%, 87%)" stroke="hsl(147, 100%, 56%)" stroke-width="2"/>
<text x="974" y="203" fill="#1f2328">Task 3</text>
<rect x="964" y="230" width="120" height="32" rx="6" fill="hsl(343, 100%, 87%)" stroke="hsl(343, 100%, 56%)" stroke-width="2"/>
<text x="974" y="251" fill="#1f2328">Task 3-1</text>
<text x="508" y="438" fill="#1f2328">A note under the map</text>
</svg>
