<svg xmlns="http://www.w3.org/2000/svg" width="960" height="300" viewBox="0 0 960 300" font-family="'Segoe UI', Helvetica, Arial, sans-serif" font-size="14">
<rect width="960" height="300" fill="white"/>
<rect x="16" y="16" width="256" height="268" rx="6" fill="#f6f8fa" stroke="#d0d7de"/>
<text x="32" y="36" font-size="12" fill="#57606a">outline.md</text>
<text x="32" y="68" font-family="Consolas, 'Courier New', monospace" fill="#1f2328" xml:space="preserve"># Map Title</text>
<text x="32" y="92" font-family="Consolas, 'Courier New', monospace" fill="#1f2328" xml:space="preserve"></text>
<text x="32" y="116" font-family="Consolas, 'Courier New', monospace" fill="#1f2328" xml:space="preserve">- Activity A</text>
<text x="32" y="140" font-family="Consolas, 'Courier New', monospace" fill="#1f2328" xml:space="preserve">    - Task 1</text>
<text x="32" y="164" font-family="Consolas, 'Courier New', monospace" fill="#1f2328" xml:space="preserve">        - Task 2</text>
<text x="32" y="188" font-family="Consolas, 'Courier New', monospace" fill="#1f2328" xml:space="preserve">            - Task 3</text>
<text x="32" y="212" font-family="Consolas, 'Courier New', monospace" fill="#1f2328" xml:space="preserve">    - Task 4</text>
<text x="32" y="236" font-family="Consolas, 'Courier New', monospace" fill="#1f2328" xml:space="preserve">- Activity B</text>
<text x="32" y="260" font-family="Consolas, 'Courier New', monospace" fill="#1f2328" xml:space="preserve">    - Task 5</text>
<text x="316" y="138" text-anchor="middle" font-size="12" fill="#57606a">renders as</text>
<line x1="286" y1="150" x2="338" y2="150" stroke="#57606a" stroke-width="2"/>
<polygon points="338,144 348,150 338,156" fill="#57606a"/>
<rect x="364" y="16" width="580" height="260" rx="6" fill="white" stroke="#d0d7de"/>
<text x="380" y="54" font-size="22" font-weight="bold" fill="#1f2328">Map Title</text>
<rect x="380" y="68" width="548" height="48" fill="hsl(147, 100%, 94%)"/>
<line x1="380" y1="115" x2="928" y2="115" stroke="hsl(147, 100%, 87%)" stroke-width="2" stroke-dasharray="6 4"/>
<rect x="380" y="116" width="548" height="48" fill="hsl(343, 100%, 94%)"/>
<line x1="380" y1="163" x2="928" y2="163" stroke="hsl(343, 100%, 87%)" stroke-width="2" stroke-dasharray="6 4"/>
<rect x="380" y="164" width="548" height="48" fill="hsl(37, 100%, 94%)"/>
<line x1="380" y1="211" x2="928" y2="211" stroke="hsl(37, 100%, 87%)" stroke-width="2" stroke-dasharray="6 4"/>
<rect x="380" y="212" width="548" height="48" fill="hsl(37, 100%, 98%)"/>
<line x1="380" y1="259" x2="928" y2="259" stroke="hsl(37, 100%, 87%)" stroke-width="2" stroke-dasharray="6 4"/>
<text x="396" y="97" fill="#888">User Activity</text>
<text x="396" y="145" fill="#888">Walking Skeleton</text>
<text x="396" y="193" fill="#888">User Tasks</text>
<rect x="528" y="76" width="256" height="32" rx="6" fill="hsl(147, 100%, 87%)" stroke="hsl(147, 100%, 56%)" stroke-width="2"/>
<text x="538" y="97" fill="#1f2328">Activity A</text>
<rect x="528" y="124" width="120" height="32" rx="6" fill="hsl(343, 100%, 87%)" stroke="hsl(343, 100%, 56%)" stroke-width="2"/>
<text x="538" y="145" fill="#1f2328">Task 1</text>
<rect x="528" y="172" width="120" height="32" rx="6" fill="hsl(37, 100%, 87%)" stroke="hsl(37, 100%, 56%)" stroke-width="2"/>
<text x="538" y="193" fill="#1f2328">Task 2</text>
<rect x="528" y="220" width="120" height="32" rx="6" fill="hsl(37, 100%, 87%)" stroke="hsl(37, 100%, 56%)" stroke-width="2"/>
<text x="538" y="241" fill="#1f2328">Task 3</text>
<rect x="664" y="124" width="120" height="32" rx="6" fill="hsl(343, 100%, 87%)" stroke="hsl(343, 100%, 56%)" stroke-width="2"/>
<text x="674" y="145" fill="#1f2328">Task 4</text>
<rect x="800" y="76" width="120" height="32" rx="6" fill="hsl(147, 100%, 87%)" stroke="hsl(147, 100%, 56%)" stroke-width="2"/>
<text x="810" y="97" fill="#1f2328">Activity B</text>
<rect x="800" y="124" width="120" height="32" rx="6" fill="hsl(343, 100%, 87%)" stroke="hsl(343, 100%, 56%)" stroke-width="2"/>
<text x="810" y="145" fill="#1f2328">Task 5</text>
</svg>
